<svg xmlns="http://www.w3.org/2000/svg" viewBox="0 0 128 128">
<!-- SVG created with Arrow, by QuiverAI (https://quiver.ai) -->
  <style type="text/css">.cls-0 {fill:#252D35;}
.cls-1 {fill:#FFAA45;}
.cls-2 {fill:#FFFFFF;}
.cls-3 {fill:#F87D36;}
.cls-4 {fill:#FBA84A;}
.cls-5 {fill:#283039;}
.cls-6 {fill:#F37937;}
.cls-7 {fill:#140607;}</style>
  <path class="cls-0" d="m13 77c-0.5-2-1.7-7.6 1.2-8.5 1.9-0.6 3.8 1.3 5.8 2 1.3 0.5 2.6 0.7 4.4 0.7 0.6 0 0.6-0.3 0.9-0.9 1.3-2.6 3.4-5.7 5.3-8.3 1.9-2.7 2.4-4.4 1.6-8.1-1.1-4.6-2.2-9.4-2.5-16.4-0.1-3.8 0.6-9.6 1.9-13.3 1.8-4.8 3.9-8.5 6.5-11.5 5.8-6.7 13.7-11 23-11.2 9.5-0.6 16.7 1.5 22.3 5.2 3 2 6.2 4.8 8.3 7.6 2.5 3.4 4.8 7.8 5.8 11.7 1.3 4.6 1.9 10.6 1.7 16.6-0.1 3.7-1.1 7.3-1.7 10.9-0.1 1 0.6 0.7 0.9 0.6 3.7-1.2 7.2-3.2 10.3-5.1 1.5-0.9 3.7-2.1 5.4-2.1 1.9 0 3.5 1.7 3.9 3.2 0.5 1.9 0.3 5.6 0 7.5-1.1 6.4-5.5 13.8-11.4 18.2-1.4 1.1-3 1.9-4.7 2.8-0.6 0.4-0.4 0.8-0.5 2-0.3 6-1.9 11.7-5.4 16.4-3.7 4.9-9 8.6-16 11.3-0.6 0.3-0.8 0.2-0.8 1.1l-0.5 4.2c0 0.6 0.7 0.6 1.1 0.7 3.1 0.5 8.4 1.4 11.5 2.7 3.3 1.3 2.8 3.6 1.6 4.6-1.1 0.9-4.3 0.5-4.8 2s-2 1.6-4.5 1.5c-2.9-0.1-7.8-0.7-11.6-1.7-2.8-0.8-3.4-1.9-3.2-4.6 0.6-2.2 1.1-4 1.3-7.5-4.7 0.6-10 1.1-17.7 0.6h-0.1v3.3c0 0.9 4.6 2.5 7 4.9 1.8 1.8 1.2 4.7-0.7 5-2 0.3-3.6 0.2-5.2 0.2-2 0-2.9 1.3-5.3 1.3-2.5 0-3.7-1.3-5.5-1.3-3.2 0-7.3 0.7-7.3-2.4 0-3.3 5.6-5.2 8.1-7 0.4-0.3 0.2-0.8 0.2-1.3l-0.1-3.2c0-0.9-0.9-0.9-1.5-1.1-5.6-1.3-10.6-2.7-15.5-5.5-7.4-4.2-14.1-11.4-16.4-20.4-0.7-3.3-1.2-7.9 2.8-7.3l0.1-0.1z"/>
  <path class="cls-1" d="m31.3 104c-8.7-3.5-16.8-11.4-18.9-21.4-0.8-4.6-0.3-2.6 1.5-2.5 1.5 0.3 3-0.2 2.4-2-0.9-1.7-1.7-6.5-1.3-7 0.6-0.6 1.9 0.9 4.5 1.9 1.5 0.5 2.9 0.7 4.1 0.8-1.5 3.6-3.7 9.7-3.6 13.6 0.1 2.9 2.4 5.2 6.1 5 2 0 3.5 0 5.8-0.8 5.7-1.7 11-6 13.7-11.7 0.5-1 1.8-3.3 0.8-4-1.3-1.3-2.3 0.5-2.8 1.8-2 3.9-5.1 7.2-10.1 9.9-3.4 1.4-9.4 3-10.7 0.9-0.9-2.1 1.6-11.1 6.2-19.1 3.1-5.7 6.4-7.5 6.1-13.3-0.2-3.2-2.5-10.2-2.8-19 0-2.7 0.3-8.4 1.8-12.5 2.5-6.6 6.8-12.2 12.3-15.7 4.2-2.9 10-5 16.2-5.1 6.9-0.2 13.5 1.2 18 3.9 7.3 4.3 12 10.8 14.4 17.9 1.4 4.3 2.4 13.3 1.4 20.8-1.8 10-1.9 11.2-0.8 14.6 2 4.9 3.4 11 3.5 17 0 4.1-0.6 8.6-2.1 11.9-1 2.2-2.5 4.7-4.7 7"/>
  <path class="cls-2" d="m92.3 98.4c-3.4 3.5-8.8 7-17.3 9-7.5 2-16.6 2.5-24.9 1.6-6.1-0.6-13.1-2.1-18.8-5 15.2 0 18.8-11 21.7-19.1 1.1-3.3 1.9-6.3 4.4-10.9 2.1-4 4.6-8.4 4.1-14-0.6-4.1-3.4-9.6-4.9-12.4 2.8 2.3 7.9 3.5 15 3.8 4 0 10.4-0.8 13.9-2.3-1.1 1.8-2.6 4-2.5 6.4 0 4 3.1 9.4 6.4 13.9 2.9 4 5 8.1 5.1 16-0.1 5.5-0.9 10.6-2.2 13z"/>
  <path class="cls-1" d="m101.4 75.9c-0.5-5.8-1.3-9.9-2.9-14.3-0.5-1.2-1.1-3-1.1-4.5 3.6-1 7.1-2.7 11-5 3.5-2.2 7.6-5 7.7 1 0.3 9.5-7.5 19.8-14.7 22.8z"/>
  <path class="cls-3" d="m46 111.1 3.6 0.5 0.2 4.5c0.2 2.3 8.6 5 7.8 6.5-2 0.3-4.1-0.5-7 0.9-2.7 1.3-3 0.6-6.2-0.5-2-0.6-6.5 0.4-6.4-0.5 1.5-2.1 7.1-4.5 7.8-5.5 0.6-0.9 0.3-3.5 0.2-5.9z"/>
  <path class="cls-3" d="m76.6 109.9c-0.2 2.2-1 5.6 0 6.2 1.8 0.5 12 1.8 14 3.3 1 0.5-3.5-0.4-4.6 3.2-2.1 0.3-10.9-1.1-13.4-2-2.2-0.6-0.6-1.7 0-9.2 0-0.9 1-0.9 4-1.5z"/>
  <path class="cls-4" d="m56.4 46.9"/>
  <path class="cls-5" d="m55.8 32.1c0.1 2.5-1.2 4.8-3.2 4.7-1.7 0.1-3.7-1.7-3.8-4.3-0.2-3 1.3-5.1 3.3-5.1 1.8 0 3.5 2 3.7 4.7z"/>
  <path class="cls-5" d="m88.9 27.6c1.5 2.3 1.1 7.5-2.3 7.8-4.2 0.2-5.6-6.8-2.7-8.8 1.7-1.2 3.7-0.7 5 1z"/>
  <path class="cls-0" d="m70.1 33.9c3-0.4 5 0.2 6.9 2.1 2.6 2.4 4.1 3.4 8.4 3.8 2.2 0.2 4.2 1.7 4.2 3.7 0 3.6-4.7 5.6-13 6.5-6.7 0.6-21 0.1-21.2-4.9-0.3-4 4.6-4.5 6.2-5.3 3.5-1.4 4.4-5.4 8.5-5.9z"/>
  <path class="cls-6" d="m70.4 36.5c4.2-0.6 5.7 3.1 9.6 4.6 2.6 1.3 5.9 1.3 6.4 1.9 1.5 0.9 0.6 1.9-2 3.1-7.5 3-21.8 3.4-26-0.5-2-2.1 3.2-2.1 6-4.2 2-1.5 3.5-4.4 6-4.9z"/>
  <path class="cls-7" d="m70.6 39.4c0.5 0.2 0.8 1.5-0.1 2-1.6 1-2.6-2.8 0.1-2z"/>
  <path class="cls-0" d="m33 88c-1.9 1-7.9 2.6-9.9 1.1-1.5-1 0-6.7 0.8-9.5l-2-0.5c-1.3 3.5-2.5 8-1.3 10.5 1.5 3 5.5 3 8.9 2.5 7.4-1.1 14-6.7 16.9-13.6 1.1-2.5-0.4-3.9-1.9-2.1-2 5.2-6.6 9.6-11.5 11.6z"/>
  <path class="cls-5" d="m55.7 31.9c0.2 2.2-0.8 4.7-3.1 4.7-2 0-3.5-2.1-3.5-4.5 0-2.2 1.3-4.5 3-4.5 1.9 0 3.4 2 3.6 4.3z"/>
  <path class="cls-5" d="m89.2 30.9c0 2.6-1.1 4.5-3.2 4.2-1.9 0-3.4-2-3.4-4.2 0-2.3 1.3-4.4 3-4.5 2 0 3.5 1.7 3.6 4.5z"/>
</svg>